<mxfile host="app.diagrams.net" modified="2022-11-11T18:38:23.191Z" agent="5.0 (Windows NT 10.0; Win64; x64) AppleWebKit/537.36 (KHTML, like Gecko) Chrome/107.0.0.0 Safari/537.36" etag="otKI_lI6EYVSG1ij4XcW" version="20.5.3" type="github">
  <diagram id="ErlZvlngU5s91LJyxbeT" name="Seite-1">
    <mxGraphModel dx="1011" dy="677" grid="1" gridSize="10" guides="1" tooltips="1" connect="1" arrows="1" fold="1" page="1" pageScale="1" pageWidth="827" pageHeight="1169" math="0" shadow="0">
      <root>
        <mxCell id="0" />
        <mxCell id="1" parent="0" />
        <mxCell id="MXPHRjHXs6ulPB_KCqQz-1" value="" style="verticalLabelPosition=bottom;verticalAlign=top;html=1;shape=mxgraph.basic.rect;fillColor2=none;strokeWidth=1;size=20;indent=5;fillColor=#66FF66;" parent="1" vertex="1">
          <mxGeometry x="15" y="140" width="140" height="260" as="geometry" />
        </mxCell>
        <mxCell id="MXPHRjHXs6ulPB_KCqQz-3" value="Client" style="text;align=center;fontStyle=1;verticalAlign=middle;spacingLeft=3;spacingRight=3;strokeColor=none;rotatable=0;points=[[0,0.5],[1,0.5]];portConstraint=eastwest;fillColor=#66FF66;" parent="1" vertex="1">
          <mxGeometry x="45" y="150" width="80" height="26" as="geometry" />
        </mxCell>
        <mxCell id="MXPHRjHXs6ulPB_KCqQz-4" value="CSS" style="html=1;fillColor=#D4E1F5;" parent="1" vertex="1">
          <mxGeometry x="30" y="265" width="110" height="50" as="geometry" />
        </mxCell>
        <mxCell id="MXPHRjHXs6ulPB_KCqQz-5" value="HTML" style="html=1;fillColor=#D4E1F5;" parent="1" vertex="1">
          <mxGeometry x="30" y="200" width="110" height="50" as="geometry" />
        </mxCell>
        <mxCell id="r93GLIMq4q0C2xg-Hqf_-5" style="edgeStyle=orthogonalEdgeStyle;rounded=0;orthogonalLoop=1;jettySize=auto;html=1;exitX=0;exitY=0.5;exitDx=0;exitDy=0;entryX=0;entryY=0.5;entryDx=0;entryDy=0;" edge="1" parent="1" source="MXPHRjHXs6ulPB_KCqQz-6" target="MXPHRjHXs6ulPB_KCqQz-4">
          <mxGeometry relative="1" as="geometry" />
        </mxCell>
        <mxCell id="r93GLIMq4q0C2xg-Hqf_-6" style="edgeStyle=orthogonalEdgeStyle;rounded=0;orthogonalLoop=1;jettySize=auto;html=1;exitX=0;exitY=0.5;exitDx=0;exitDy=0;entryX=0;entryY=0.5;entryDx=0;entryDy=0;" edge="1" parent="1" source="MXPHRjHXs6ulPB_KCqQz-6" target="MXPHRjHXs6ulPB_KCqQz-5">
          <mxGeometry relative="1" as="geometry" />
        </mxCell>
        <mxCell id="MXPHRjHXs6ulPB_KCqQz-6" value="JavaScript" style="html=1;fillColor=#D4E1F5;" parent="1" vertex="1">
          <mxGeometry x="30" y="330" width="110" height="50" as="geometry" />
        </mxCell>
        <mxCell id="MXPHRjHXs6ulPB_KCqQz-10" value="" style="verticalLabelPosition=bottom;verticalAlign=top;html=1;shape=mxgraph.basic.rect;fillColor2=none;strokeWidth=1;size=20;indent=5;fillColor=#FF6666;" parent="1" vertex="1">
          <mxGeometry x="205" y="140" width="595" height="260" as="geometry" />
        </mxCell>
        <mxCell id="r93GLIMq4q0C2xg-Hqf_-1" value="Server" style="text;align=center;fontStyle=1;verticalAlign=middle;spacingLeft=3;spacingRight=3;strokeColor=none;rotatable=0;points=[[0,0.5],[1,0.5]];portConstraint=eastwest;fillColor=#FF6666;" vertex="1" parent="1">
          <mxGeometry x="430" y="140" width="80" height="26" as="geometry" />
        </mxCell>
        <mxCell id="r93GLIMq4q0C2xg-Hqf_-3" style="edgeStyle=orthogonalEdgeStyle;rounded=0;orthogonalLoop=1;jettySize=auto;html=1;exitX=0;exitY=0.5;exitDx=0;exitDy=0;entryX=1;entryY=0.5;entryDx=0;entryDy=0;" edge="1" parent="1" source="r93GLIMq4q0C2xg-Hqf_-2" target="MXPHRjHXs6ulPB_KCqQz-5">
          <mxGeometry relative="1" as="geometry" />
        </mxCell>
        <mxCell id="r93GLIMq4q0C2xg-Hqf_-4" style="edgeStyle=orthogonalEdgeStyle;rounded=0;orthogonalLoop=1;jettySize=auto;html=1;entryX=1;entryY=0.5;entryDx=0;entryDy=0;" edge="1" parent="1" source="r93GLIMq4q0C2xg-Hqf_-2" target="MXPHRjHXs6ulPB_KCqQz-4">
          <mxGeometry relative="1" as="geometry" />
        </mxCell>
        <mxCell id="r93GLIMq4q0C2xg-Hqf_-2" value="Thymeleaf" style="html=1;fillColor=#D4E1F5;" vertex="1" parent="1">
          <mxGeometry x="230" y="230" width="110" height="50" as="geometry" />
        </mxCell>
        <mxCell id="r93GLIMq4q0C2xg-Hqf_-7" value="" style="verticalLabelPosition=bottom;verticalAlign=top;html=1;shape=mxgraph.basic.rect;fillColor2=none;strokeWidth=1;size=20;indent=5;fillColor=#FF6666;dashed=1;" vertex="1" parent="1">
          <mxGeometry x="365" y="190" width="280" height="180" as="geometry" />
        </mxCell>
      </root>
    </mxGraphModel>
  </diagram>
</mxfile>
